# xmcd
#
# Track frame offsets: 
#        150
#        12422
#        30230
#        42830
#        59282
#        70127
#        84130
#        100172
#        114225
#        126000
#
# Disc length: 1873 seconds
#
# Revision: 9
# Processed by: cddbd v1.5.2PL0 Copyright (c) Steve Scherf et al.
# Submitted via: ExactAudioCopyFreeDBPlugin 1.0
#
DISCID=6e074f0a
DTITLE=Ken Mellons - Ken Mellons
DYEAR=1994
DGENRE=Country
TTITLE0=Jukebox Junkie
TTITLE1=I Can Bring Her Back
TTITLE2=Lookin' In the Same Direction
TTITLE3=The Pleasure's All Mine
TTITLE4=Workin' For the Weekend
TTITLE5=Seven Lonely Days (Makes One Weak)
TTITLE6=Keepin' It Country
TTITLE7=Learnin' To Live Without You
TTITLE8=Honky Tonk Teachers
TTITLE9=Doctor Jesus
EXTD=Ken Mellons- Juke Box Junkie
EXTT0=
EXTT1=
EXTT2=
EXTT3=
EXTT4=
EXTT5=
EXTT6=
EXTT7=
EXTT8=
EXTT9=
PLAYORDER=
